<svg width="30" height="40" viewBox="0 0 30 40" fill="none" xmlns="http://www.w3.org/2000/svg">
<mask id="mask0_417_11" style="mask-type:alpha" maskUnits="userSpaceOnUse" x="0" y="0" width="30" height="40">
<rect width="30" height="40" fill="#D9D9D9"/>
</mask>
<g mask="url(#mask0_417_11)">
<path d="M20.7071 39.2803C20.3176 39.6768 19.6796 39.6796 19.2866 39.2866L0.707107 20.7071C0.316582 20.3166 0.316583 19.6834 0.707107 19.2929L19.2866 0.713391C19.6796 0.320421 20.3178 0.323432 20.7072 0.719864C21.1967 1.21808 21.6145 1.6433 22.1052 2.14276C22.4898 2.53427 22.4872 3.16279 22.0991 3.55088L6.35711 19.2929C5.96658 19.6834 5.96658 20.3166 6.35711 20.7071L22.0991 36.4491C22.4872 36.8372 22.49 37.4656 22.1054 37.8571L20.7071 39.2803Z" fill="white"/>
</g>
</svg>
